<svg width="1440" height="186" viewBox="0 0 1440 186" fill="none" xmlns="http://www.w3.org/2000/svg">
<g clip-path="url(#clip0)">
<g clip-path="url(#clip1)">
<path d="M1408.23 205.697C1067.13 204.91 725.877 199.682 384.895 203.92C264.623 204.706 144.858 205.471 24.5057 205.664C120.837 200.124 223.463 203.732 322.695 201.89C585.089 201.606 848.123 197.69 1109.95 202.256C1211.36 203.353 1312.94 204.056 1414.58 204.049C1439.37 205.298 1419.97 206.488 1408.24 205.697L1408.23 205.697ZM1338.79 189.239C991.766 190.729 644.02 193.462 297.352 189.076C206.23 189.033 114.937 189.731 23.9812 188.497C343.898 188.309 627.649 186.962 931.056 189.819C1113.18 186.708 1212.21 189.679 1360.63 185.908C1421.97 185.349 1414.44 191.772 1359.03 189.232L1348.9 189.206L1338.79 189.239ZM1428.52 184.321C939.228 186.536 508.853 186.172 58.6287 184.407C47.7574 177.479 149.894 183.902 180.547 181.942C612.302 187.849 1016.37 179.268 1417.01 181.115C1424.2 181.554 1432.31 182.859 1428.53 184.321L1428.52 184.321ZM1409.88 178.678C1301.14 176.52 1191.67 177.603 1083.31 179.681C836.417 182.588 588.666 182.799 341.578 180.547C247.138 179.861 149.537 180.559 57.3306 177.943C109.051 175.475 172.846 178.404 229.4 178.338C297.914 179.064 366.646 179.627 435.279 179.061C305.109 176.555 173.095 178.22 43.5268 174.601C229.1 175.306 414.104 178.654 599.903 178.552C803.434 179.179 1006.76 176.632 1208.73 172.648C1269.15 172.049 1374.92 172.418 1407.07 173.814C1310.11 174.735 1212.36 172.175 1116.23 175.469C108.659 181.69 658.464 181.124 1289.44 175.309C1319.52 175.51 1413.83 174.007 1409.87 178.678H1409.88ZM737.002 181.431C742.016 182.88 742.847 179.91 737.002 181.431V181.431ZM1430.48 165.552C1215.77 163.479 1000.54 164.252 785.73 162.545C619.974 173.272 439.668 169.16 267.148 167.566C204.065 163.479 61.3144 171.471 48.6646 161.848C159.103 159.725 273.981 165.291 381.447 158.372C451.73 152.761 528.863 151.917 605.491 152.378C761.275 154.662 957.432 150.648 1132.19 147.093C1209.61 145.619 1287.4 145.903 1364.83 144.674C1402.84 144.147 1434.32 150.251 1376.12 148.916C1294.62 149.82 1210.96 147.559 1130.78 150.359C1124.62 160.022 1231.78 155.472 1274.04 158.01C1326.1 159.775 1396.54 158.351 1436 163.671L1434.05 164.743L1430.5 165.551L1430.48 165.552ZM1411.26 159.501C1361.67 156.418 1226.61 159.244 1228.48 151.564C1279.91 150.018 1377.08 149.441 1401.53 151.933C1369.02 152.561 1264.41 147.821 1280.21 155.328C1319.47 156.331 1370.26 155.031 1411.26 159.501V159.501ZM1418.85 144.413C1207.68 141.143 996.9 146.499 787.331 150.252C668.303 151.85 548.669 151.772 429.481 150.702C383.423 151.299 316.03 166.556 314.981 152.25C251.28 147.794 180.334 153.007 113.462 151.695C6.8308 148.044 206.746 155.659 177.189 147.013C144.524 146.559 23.0586 143.996 115.354 145.279C414.068 150.893 718.331 153.406 1015.44 144.103C1123.14 142.389 1231.42 142.384 1339.34 141.226C1359.89 144.891 1402.25 140.519 1418.87 144.413L1418.85 144.413ZM1422.31 141.774C1352.91 138.065 1278.34 141.697 1211.41 137.076C1172.86 135.626 1060.36 141.162 1062.12 137.869C1179.76 134.944 1300.46 135.872 1416.19 139.998C1421.6 140.215 1421.13 141.06 1422.3 141.774L1422.31 141.774ZM1429.9 137.044C1357.84 133.448 1281.21 134.956 1210.13 131.719C966.344 134.012 722.445 143.409 494.213 142.631C412.842 141.125 328.045 146.672 249.549 140.639C187.603 139.259 109.661 142.763 60.5359 138.123C-8.63498 131.011 124.29 136.296 149.51 136.601C345.016 140.546 474.838 137.475 739.208 138.18C921.142 129.756 1107.49 127.909 1281.53 129.43C1316.13 130.629 1441.38 131.673 1429.89 137.044L1429.9 137.044ZM1411.95 119.117C1183.96 116.364 954.108 115.245 726.622 119.783C785.589 121.143 779.849 128.655 722.461 127.46C599.11 131.461 470.509 135.59 346.805 129.538C264.752 126.475 184.149 121.753 99.6475 121.017C122.451 122.985 227.388 127.892 149.488 124.912C117.551 126.525 5.12741 117.425 89.2754 118.22C114.952 119.211 216.058 122.665 199.002 119.14C144.325 117.914 6.38079 119.483 46.6603 104.136C145.12 102.658 244.041 101.983 339.853 97.6523C407.133 97.8028 499.058 96.6636 549.679 103.599C500.852 107.46 423.78 103.088 388.509 109.692C478.004 118.447 524.357 111.712 681.977 113.055C945.02 119.833 1173.23 101.796 1418.52 110.221C1363.66 112.06 1447.46 111.044 1394.57 113.249C1317.89 114.725 1240 111.072 1164.54 115.421C1246.81 116.324 1334.02 111.874 1413.88 116.941C1435.24 119.612 1433.09 119.181 1411.93 119.117L1411.95 119.117ZM1418.91 118.177C1423.93 119.626 1424.76 116.656 1418.91 118.177V118.177ZM912.699 114.883C801.115 114.741 658.618 117.008 531.41 118.49C554.593 121.461 668.38 121.938 588.605 126.332C499.344 132.461 405.432 125.502 319.917 120.881C285.195 118.595 253.962 124.278 305.668 123.688C397.922 127.48 493.657 131.568 588.978 128.762C648.574 131.588 682.159 118.943 621.993 118.809C681.256 115.736 747.004 117.512 808.828 115.992C879.481 115.37 950.295 115.06 1021.02 115.511C985.067 114.766 948.782 115.151 912.688 114.883L912.699 114.883ZM662.983 123.921C641.94 125.237 674.387 122.135 662.983 123.921V123.921ZM1411.26 108.237C1378.5 111.73 1306.81 102.082 1380.18 103.407C1401.07 102.567 1469.11 105.891 1411.26 108.237ZM1434.04 102.071C1334.4 100.512 1237.75 105.774 1141.15 108.678C936.102 111.534 728.606 113.695 524.089 108.618C538.186 105.483 659.681 106.251 604.223 101.763C549.609 102.364 542.973 91.2932 605.194 94.8227C846.228 92.1999 1087.97 93.4105 1329.18 91.5403C1087.6 94.5625 844.718 92.5908 603.427 96.4815C584.953 103.157 725.428 100.922 650.424 106.818C757.69 112.727 872.378 109.969 982.985 109.918C1130.38 108.306 1274.99 100.193 1423.35 101.755L1434.04 102.071ZM1360.88 90.0923C1179.86 92.0692 802.622 92.7989 522.571 92.447C358.035 89.1579 191.611 87.391 26.1859 89.7652C48.8037 84.0176 180.846 88.8002 84.2116 87.2611C36.7044 87.9528 33.2314 85.4434 81.9546 86.07C252.034 86.6174 422.439 85.0974 592.088 87.9092C665.618 88.8701 738.06 86.3475 811.403 88.4684C1014.43 89.0587 1217.29 86.0615 1420.37 86.3823C1453.56 91.9894 1374.4 89.192 1360.87 90.0922L1360.88 90.0923ZM1338.79 87.2626C1298.81 88.0734 1245.93 87.257 1213.94 88.8185C1255.52 88.3465 1298.54 89.6554 1338.79 87.2626ZM1429.89 81.0315C1214.25 83.113 993.004 81.9425 727.253 81.2582C535.524 78.7679 342.459 75.877 150.779 80.1061C119.243 81.4257 -10.1926 79.5058 77.9474 78.2805C186.68 77.1575 295.617 76.3769 404.545 75.9778C472.689 75.8951 540.827 76.0707 608.963 76.2161C534.605 70.4015 449.065 74.5655 370.174 73.3404C273.79 74.7276 177.056 75.019 81.1223 76.8307C3.42623 72.4638 128.765 71.5615 155.906 71.621C617.56 67.3058 1013.07 77.8461 1429.89 73.6237C1165.16 83.9654 871.936 73.4754 622.032 74.4828C718.562 80.7087 804.386 76.2712 960.805 79.8663C1071.42 80.3993 1182.25 80.0225 1292.51 78.3955C1341.94 83.7921 1383.7 71.8982 1429.93 81.0314L1429.89 81.0315ZM1431.27 61.7341C1314.53 62.6156 1199.52 67.5244 1082.12 66.3351C744.508 67.5406 407.723 62.0415 70.2201 61.7953C33.1817 57.21 154.501 61.0027 177.592 60.6573C467.527 61.7635 823.554 66.3721 1148.41 64.3348C1228.62 65.8651 1281.39 57.7213 1360.41 59.3251C1383.62 59.6898 1422.23 55.8583 1431.29 61.7342L1431.27 61.7341ZM1424.37 56.8543C1302.21 54.3741 1181.38 59.1797 1061.83 62.5527C900.974 65.2671 739.345 63.0993 578.227 62.4547C668.562 59.5619 761.097 62.5018 852.418 61.4694C959.72 61.5279 1065.48 58.1918 1170.79 55.3151C1256.12 54.2005 1342.14 54.2867 1427.17 56.0044L1427.5 56.5653L1424.37 56.8543ZM1433.29 53.1604C1259.44 51.7998 1083.78 52.3141 913.054 58.4025C662.239 60.7767 410.043 60.1139 160.608 54.792C129.426 55.1273 25.218 55.967 55.9397 48.0432C177.698 48.6281 297.136 53.1882 417.903 55.3135C834.419 57.239 820.063 56.4148 946.506 50.9723C1046.14 49.7991 1146.82 48.2216 1246.19 48.203C1309.52 48.8987 1393.65 44.5626 1430.92 52.7492L1433.24 52.8951L1433.33 53.1603L1433.29 53.1604ZM1242.85 45.6685C904.606 44.9273 565.253 53.2724 228.109 45.6376C182.725 45.6329 62.1735 46.2341 64.9481 43.7666C372.331 45.924 680.432 48.7411 987.76 44.9211C1136.56 44.0592 1285.45 43.4061 1434.37 43.7166C1374.01 48.9024 1306.26 43.8706 1242.84 45.6685H1242.85ZM1424.37 28.2069C1323.54 28.2467 1222.74 27.1685 1122.57 25.2595C1155.34 11.5893 1258.06 23.4168 1322.02 20.8021C1351.86 21.0168 1446.47 18.4956 1424.38 28.2069H1424.37ZM1424.37 17.5654C1389.25 16.5131 1272.3 15.1764 1365.54 15.1912C1385.78 15.2636 1406.76 15.7542 1424.37 17.5654ZM1416.09 2.782C1061.36 3.65752 706.3 -6.98052 352.205 0.868288C246.109 3.88522 138.76 3.39275 31.7086 2.68122C160.04 -2.43243 298.928 2.15434 336.138 -1.584C620.496 -5.39511 905.848 -2.81331 1190.57 -2.11589C1265.45 0.446423 1365.71 -1.02892 1426.41 2.46438L1416.09 2.782ZM1402.29 -0.723619C1310.03 -2.65232 1218.92 -7.62147 1125.44 -4.49246C901.345 -3.64412 677.202 -4.50105 453.111 -4.65453C758.893 -5.30833 1065.56 -5.29454 1370.84 -5.77151C1390.6 -5.84676 1461.95 0.434771 1402.31 -0.723461L1402.29 -0.723619ZM1054.49 -4.57747C1059.5 -3.1286 1060.33 -6.09896 1054.49 -4.57747V-4.57747ZM1373.38 -12.359C1351.55 -14.863 1302.94 -9.89108 1355.06 -10.5009C1167.65 -12.3977 978.383 -15.7893 791.948 -10.2959C628.6 -8.83785 465.102 -11.5015 301.499 -10.9575C213.773 -12.0294 118.969 -9.02877 35.5554 -13.2827C-13.3377 -24.6719 71.6579 -35.5276 132.331 -29.0631C525.16 -31.5726 918.347 -30.8118 1311.37 -30.2274C1366.95 -32.1081 1443.21 -27.0601 1434.34 -16.6851C1424.59 -12.6962 1396.13 -11.0847 1373.37 -12.3591L1373.38 -12.359ZM658.953 -23.6696C482.77 -25.0642 306.156 -24.0956 130.433 -21.6367C198.271 -15.7837 279.992 -20.5053 353.213 -18.3311C462.329 -18.489 571.211 -20.2207 679.121 -22.908C672.604 -23.3674 665.973 -23.5981 658.941 -23.6696H658.953ZM632.956 -21.6628C616.717 -21.0526 638.073 -22.7312 632.956 -21.6628V-21.6628ZM367.062 -29.8739C372.076 -28.4251 372.906 -31.3954 367.062 -29.8739V-29.8739ZM356.019 -29.8739C361.033 -28.4251 361.863 -31.3954 356.019 -29.8739V-29.8739ZM1419.77 58.9286C1403.53 59.5388 1424.88 57.8602 1419.77 58.9286V58.9286ZM1374.63 108.739C1344.29 111.175 1373.76 106.34 1374.63 108.739V108.739ZM1332.06 35.6796C1339.96 41.7833 1274.15 33.0584 1298.21 39.9325C1026.99 40.9776 755.746 43.5833 484.419 42.9718C413.638 42.4642 342.16 40.9461 271.956 41.2313C219.424 33.9137 336.301 36.5 366.178 34.7936C435.921 34.1526 504.534 32.2594 572.36 29.6387C730.071 23.0196 411.618 20.6427 357.805 18.9321C302.951 16.6509 223.648 19.5585 184.305 12.6869C243.921 8.91342 311.667 9.66759 374.306 7.43738C584.621 2.9079 801.451 1.36228 1009.64 8.52088C930.999 15.2074 834.605 15.3049 749.126 19.4501C804.722 16.5343 701.003 24.3744 771.072 24.4897C882.866 27.1183 994.909 29.5818 1106.78 32.215C1181.5 33.866 1257.91 34.3212 1332.3 35.2063L1332.05 35.6792L1332.06 35.6796ZM1093.15 38.0603C1098.16 39.5092 1098.99 36.5388 1093.15 38.0603V38.0603ZM715.257 31.9857C626.813 34.2711 537.544 35.6216 449.608 38.4656C539.557 43.2185 636.015 40.5922 728.694 40.5701C808.623 39.9016 889.154 40.3948 968.452 38.2667C1005.26 28.4808 738.42 31.7016 715.251 31.9855L715.257 31.9857ZM853.717 8.32672C670.177 3.5223 482.975 6.4646 301.345 12.1372C378.513 21.6115 477.732 16.2862 565.036 18.7783C663.462 17.9044 764.487 15.9489 853.701 8.32699L853.717 8.32672ZM1330 137.681C1308.85 138.414 1338.23 135.991 1330 137.681V137.681ZM1291.88 47.4311C1254.85 46.829 1310.84 46.5781 1291.88 47.4311V47.4311ZM1226.28 5.86454C1186.61 7.03823 1174.11 3.84564 1224.29 4.84639C1258.97 4.67967 1283.21 6.6581 1226.28 5.86454ZM1271.33 15.4457C1237.65 17.6599 1162.16 14.3671 1241.33 14.8807C1251.39 14.8586 1261.68 14.8968 1271.33 15.4457ZM1251.32 153.614C1234.53 154.203 1259.21 152.119 1251.32 153.614V153.614ZM1237.35 78.0896C1216.18 78.1429 1248.88 77.4322 1237.35 78.0896V78.0896ZM1216.64 78.0534C1194.21 77.6992 1239.08 77.6992 1216.64 78.0534V78.0534ZM1212.73 146.081C1196.49 146.691 1217.85 145.012 1212.73 146.081V146.081ZM1194.57 78.0721C1175.54 77.8146 1213.59 77.8146 1194.57 78.0721V78.0721ZM1099.32 205.965C770.073 201.561 816.233 206.521 1089.02 205.204C1113.35 205.351 1148.49 206.179 1099.32 205.965ZM1121.06 100.393C1068.96 100.315 934.427 106.084 930.471 100.16C992.367 97.6353 1054.63 95.4691 1121.06 100.393ZM1073.79 188.451C1006.97 189.729 1043.86 186.632 1088.78 188.08L1073.79 188.451ZM1007.76 186.57C996.417 189.771 989.361 185.503 1007.76 186.57V186.57ZM965.745 142.371C824.383 146.117 680.531 146.008 537.799 146.622C387.76 147.022 353.306 148.879 61.3751 142.132C96.3291 139.213 203.342 145.531 264.509 144.796C414.896 145.94 565.708 145.43 716.114 145.006C790.409 138.492 919.444 154.321 965.717 142.371L965.745 142.371ZM781.381 189.694C1218.41 202.5 999.893 196.097 781.381 189.694V189.694ZM740.66 120.167C725.37 123.485 720.622 118.883 740.66 120.167V120.167ZM657.835 76.74C641.596 77.3502 662.951 75.6716 657.835 76.74V76.74ZM616.423 76.2715C600.184 76.8817 621.54 75.2031 616.423 76.2715V76.2715ZM602.619 98.2929C586.381 98.9031 607.736 97.2245 602.619 98.2929V98.2929ZM563.582 4.15371C553.642 2.36936 582.678 4.50692 563.582 4.15371V4.15371ZM474.023 61.9623C331.557 61.4824 188.781 60.4631 47.6238 56.9967C124.398 53.2046 200.49 60.2779 278.056 59.5995C357.378 60.479 437.25 60.1091 516.127 61.9992C502.1 62.1763 488.062 61.9463 474.026 61.9622L474.023 61.9623ZM450.787 -30.5511C434.548 -29.9409 455.903 -31.6195 450.787 -30.5511V-30.5511ZM447.1 -4.11323C340.087 -3.34056 281.81 0.384382 52.5045 -0.524166C62.9038 -6.81761 162.165 -1.82727 205.887 -3.65083C286.228 -4.08335 366.856 -5.6827 447.111 -4.11323H447.1ZM187.652 -3.15314C192.666 -1.70428 193.497 -4.67464 187.652 -3.15314V-3.15314ZM427.112 -30.6471C404.677 -31.0013 449.547 -31.0013 427.112 -30.6471V-30.6471ZM401.987 108.416C365.893 109.94 415.557 106.587 401.987 108.416V108.416ZM396.99 94.5798C285.359 97.1146 173.543 99.4198 61.6683 101.622C115.199 96.3078 188.967 98.9815 250.308 97.0867C287.49 97.5691 330.185 90.8148 267.144 90.6236C213.219 89.0622 102.774 92.3394 82.9052 90.5753C186.605 89.834 292.543 88.5356 394.126 93.0375C367.283 91.8643 396.865 93.5907 396.994 94.5798L396.99 94.5798ZM394.897 49.2873C336.317 48.9658 207.908 47.5161 194.425 46.3952C261.525 46.6565 328.377 47.8237 394.897 49.2873ZM379.382 133.817C345.366 133.519 268.347 129.092 347.52 131.355C359.115 131.653 371.205 132.293 379.382 133.817ZM340.151 -30.0507C316.684 -30.6508 367.013 -30.7673 340.151 -30.0507V-30.0507ZM311.412 94.047C298.386 95.4136 316.708 91.4445 311.412 94.047V94.047ZM282.175 -30.1678C256.346 -30.3015 299.058 -30.6325 282.175 -30.1678V-30.1678ZM264.366 157.366C150.611 160.35 -30.0969 155.791 174.522 153.945C204.51 154.568 237.622 154.723 264.366 157.366ZM227.728 26.8396C175.729 26.4319 45.2139 33.6802 50.9369 22.7492C111.224 19.9239 168.531 26.1039 227.728 26.8396ZM227.191 11.1463C210.952 11.7564 232.308 10.0778 227.191 11.1463V11.1463ZM213.155 101.776C201.131 100.829 233.179 101.406 213.155 101.776V101.776ZM174.734 154.047C158.495 154.657 179.85 152.978 174.734 154.047V154.047ZM102.954 55.1844C86.7151 55.7946 108.071 54.116 102.954 55.1844V55.1844Z" fill="#4E350F"/>
</g>
</g>
<defs>
<clipPath id="clip0">
<rect width="1440" height="186" fill="white" transform="translate(1440 186) rotate(-180)"/>
</clipPath>
<clipPath id="clip1">
<rect width="1440" height="600" fill="white" transform="translate(0 -207)"/>
</clipPath>
</defs>
</svg>
