<svg width="1440" height="186" viewBox="0 0 1440 186" fill="none" xmlns="http://www.w3.org/2000/svg">
<g clip-path="url(#clip0)">
<g clip-path="url(#clip1)">
<path d="M31.7739 -19.6969C372.866 -18.9105 714.123 -13.6822 1055.1 -17.9203C1175.38 -18.7058 1295.14 -19.4715 1415.49 -19.6636C1319.16 -14.1236 1216.54 -17.7315 1117.3 -15.8897C854.911 -15.6064 591.877 -11.6896 330.046 -16.2561C228.641 -17.353 127.056 -18.0559 25.424 -18.0493C0.630432 -19.2981 20.0273 -20.4879 31.7591 -19.6969L31.7739 -19.6969ZM101.207 -3.2394C448.234 -4.72889 795.98 -7.46189 1142.65 -3.07588C1233.77 -3.03277 1325.06 -3.73137 1416.02 -2.49676C1096.1 -2.30921 812.351 -0.961586 508.944 -3.81917C326.816 -0.707636 227.788 -3.67924 79.3693 0.0922565C18.028 0.651459 25.5621 -5.77247 80.968 -3.23171L91.0955 -3.20594L101.207 -3.2394ZM11.4822 1.67934C500.772 -0.535915 931.147 -0.172329 1381.37 1.59266C1392.24 8.52098 1290.11 2.09845 1259.45 4.05845C827.698 -1.84938 423.633 6.73228 22.9919 4.88515C15.7978 4.44585 7.68951 3.14096 11.4744 1.67939L11.4822 1.67934ZM30.118 7.32198C138.864 9.48008 248.328 8.39681 356.688 6.3193C603.583 3.41201 851.334 3.2007 1098.42 5.4525C1192.86 6.13938 1290.46 5.44079 1382.67 8.05712C1330.95 10.5254 1267.15 7.59608 1210.6 7.66214C1142.09 6.9359 1073.35 6.37319 1004.72 6.93871C1134.89 9.44541 1266.91 7.77974 1396.47 11.3992C1210.9 10.6936 1025.9 7.34634 840.097 7.44802C636.566 6.82078 433.244 9.36847 231.267 13.3516C170.848 13.9512 65.0801 13.5817 32.9283 12.1858C129.886 11.2651 227.645 13.8248 323.774 10.5314C1331.34 4.31011 781.536 4.8761 150.564 10.6912C120.478 10.4896 26.17 11.9934 30.1262 7.32198H30.118ZM702.998 4.56884C697.984 3.12001 697.153 6.09033 702.998 4.56884V4.56884ZM9.52264 20.4477C224.227 22.521 439.456 21.7484 654.27 23.4548C820.026 12.7285 1000.33 16.8404 1172.85 18.4344C1235.93 22.5205 1378.69 14.5286 1391.34 24.152C1280.9 26.2749 1166.02 20.7089 1058.55 27.6284C988.27 33.2388 911.137 34.0826 834.509 33.622C678.725 31.3383 482.568 35.3519 307.812 38.9072C230.386 40.3811 152.596 40.0971 75.1652 41.326C37.1606 41.8526 5.67694 35.7494 63.8836 37.0837C145.381 36.1797 229.041 38.4413 309.224 35.6408C315.379 25.9781 208.222 30.5281 165.963 27.9895C113.9 26.2253 43.4595 27.6493 3.99994 22.3291L5.94781 21.2568L9.50336 20.4489L9.52264 20.4477ZM28.7376 26.4994C78.3264 29.5824 213.394 26.7556 211.522 34.436C160.086 35.9821 62.9157 36.5593 38.4747 34.067C70.9771 33.4387 175.593 38.179 159.788 30.6717C120.53 29.6694 69.7376 30.9688 28.7376 26.4995V26.4994ZM21.1454 41.5873C232.319 44.8574 443.1 39.5007 652.669 35.7479C771.697 34.1497 891.331 34.2279 1010.52 35.2982C1056.58 34.7009 1123.97 19.4442 1125.02 33.7497C1188.72 38.2057 1259.67 32.9933 1326.54 34.3053C1433.17 37.9564 1233.25 30.341 1262.81 38.9867C1295.48 39.4407 1416.94 42.0043 1324.65 40.7212C1025.93 35.1071 721.669 32.5943 424.556 41.8967C316.859 43.6107 208.576 43.6159 100.664 44.7745C80.1061 41.1089 37.7459 45.4811 21.1288 41.5874L21.1454 41.5873ZM17.6945 44.2257C87.0945 47.9346 161.66 44.303 228.592 48.9243C267.14 50.3739 379.644 44.8378 377.88 48.1307C260.236 51.0556 139.535 50.1275 23.8123 46.0018C18.4014 45.7847 18.8651 44.9398 17.7047 44.2257L17.6945 44.2257ZM10.1025 48.9561C82.1638 52.5524 158.794 51.044 229.867 54.2811C473.656 51.9882 717.555 42.5915 945.787 43.3688C1027.16 44.8752 1111.95 39.3281 1190.45 45.3605C1252.4 46.7407 1330.34 43.2371 1379.46 47.8766C1448.63 54.9895 1315.71 49.7037 1290.49 49.3987C1094.98 45.4544 965.162 48.5253 700.792 47.82C518.858 56.2439 332.507 58.0914 158.468 56.57C123.871 55.3714 -1.37677 54.3272 10.1135 48.9558L10.1025 48.9561ZM28.0473 66.883C256.045 69.6357 485.892 70.7555 713.378 66.2169C654.411 64.8572 660.151 57.3446 717.539 58.5398C840.89 54.5389 969.491 50.4102 1093.2 56.4615C1175.25 59.5251 1255.85 64.2472 1340.35 64.9833C1317.55 63.0145 1212.61 58.1084 1290.51 61.088C1322.45 59.4755 1434.87 68.5748 1350.72 67.7802C1325.05 66.789 1223.94 63.335 1241 66.8599C1295.68 68.0859 1433.62 66.5171 1393.34 81.864C1294.88 83.342 1195.96 84.0168 1100.15 88.3477C1032.87 88.1972 940.942 89.3364 890.321 82.4014C939.148 78.5402 1016.22 82.9121 1051.49 76.308C961.996 67.5529 915.643 74.2877 758.023 72.9455C494.98 66.1671 266.773 84.204 21.4794 75.7791C76.3384 73.9401 -7.46429 74.9556 45.4329 72.751C122.107 71.2747 200.002 74.9284 275.462 70.5793C193.186 69.6763 105.979 74.1257 26.1242 69.0593C4.75995 66.3878 6.90741 66.8189 28.0671 66.8829L28.0473 66.883ZM21.088 67.8227C16.0737 66.3739 15.2435 69.3442 21.088 67.8227V67.8227ZM527.301 71.1168C638.885 71.2589 781.382 68.9921 908.59 67.5099C885.407 64.5385 771.62 64.0618 851.395 59.6679C940.656 53.5394 1034.57 60.4984 1120.08 65.1194C1154.81 67.4045 1186.04 61.7215 1134.33 62.3124C1042.08 58.5196 946.343 54.4324 851.022 57.2376C791.426 54.4117 757.841 67.0573 818.007 67.1908C758.744 70.2637 692.996 68.4878 631.172 70.0079C560.519 70.6299 489.705 70.9403 418.98 70.4893C454.933 71.2336 491.218 70.8491 527.312 71.1167L527.301 71.1168ZM777.017 62.0791C798.06 60.7626 765.613 63.8648 777.017 62.0791V62.0791ZM28.7408 77.763C61.5001 74.2696 133.194 83.9178 59.8215 82.5927C38.9291 83.4329 -29.1081 80.1085 28.7408 77.763ZM5.96454 83.929C105.603 85.4884 202.255 80.2257 298.854 77.3216C503.898 74.4656 711.394 72.305 915.911 77.3816C901.814 80.5168 780.319 79.7487 835.777 84.2373C890.391 83.6361 897.027 94.7068 834.806 91.1773C593.772 93.8001 352.032 92.5895 110.824 94.4597C352.396 91.4375 595.282 93.4092 836.573 89.5185C855.047 82.8427 714.572 85.0784 789.576 79.1825C682.31 73.2732 567.622 76.0309 457.015 76.0816C309.618 77.6941 165.01 85.8071 16.6464 84.245L5.96454 83.929ZM79.1247 95.9077C260.137 93.9308 637.378 93.2011 917.429 93.553C1081.97 96.8421 1248.39 98.609 1413.81 96.2348C1391.2 101.982 1259.15 97.1998 1355.79 98.7389C1403.3 98.0472 1406.77 100.557 1358.05 99.93C1187.97 99.3826 1017.56 100.903 847.912 98.0908C774.382 97.1299 701.94 99.6525 628.597 97.5316C425.574 96.9413 222.71 99.9385 19.629 99.6177C-13.5637 94.0106 65.5956 96.808 79.1288 95.9078L79.1247 95.9077ZM101.211 98.7374C141.192 97.9266 194.069 98.743 226.055 97.1815C184.475 97.6535 141.457 96.3446 101.211 98.7374ZM10.1057 104.969C225.749 102.887 446.996 104.057 712.747 104.742C904.476 107.232 1097.54 110.123 1289.22 105.894C1320.76 104.574 1450.19 106.494 1362.05 107.72C1253.32 108.842 1144.38 109.623 1035.45 110.022C967.311 110.105 899.173 109.929 831.037 109.784C905.395 115.598 990.935 111.435 1069.83 112.66C1166.21 111.272 1262.94 110.981 1358.88 109.169C1436.57 113.536 1311.24 114.438 1284.09 114.379C822.44 118.694 426.933 108.154 10.114 112.376C274.838 102.035 568.064 112.525 817.968 111.517C721.438 105.291 635.614 109.729 479.195 106.134C368.582 105.601 257.749 105.978 147.489 107.605C98.0607 102.208 56.3016 114.102 10.0726 104.969L10.1057 104.969ZM8.72528 124.266C125.47 123.384 240.477 118.476 357.879 119.665C695.492 118.459 1032.28 123.959 1369.78 124.205C1406.82 128.79 1285.5 124.997 1262.41 125.343C972.473 124.236 616.446 119.628 291.587 121.665C211.376 120.135 158.607 128.279 79.5912 126.675C56.3771 126.31 17.7696 130.142 8.70868 124.266L8.72528 124.266ZM15.6273 129.146C137.788 131.626 258.618 126.82 378.17 123.447C539.026 120.733 700.655 122.901 861.773 123.545C771.438 126.438 678.903 123.498 587.582 124.531C480.28 124.472 374.518 127.808 269.211 130.685C183.882 131.799 97.8592 131.713 12.825 129.996L12.4958 129.435L15.6273 129.146ZM6.7088 132.84C180.562 134.2 356.221 133.686 526.946 127.598C777.761 125.223 1029.96 125.886 1279.39 131.208C1310.57 130.873 1414.78 130.033 1384.06 137.957C1262.3 137.372 1142.86 132.812 1022.1 130.686C605.581 128.761 619.937 129.585 493.494 135.028C393.856 136.201 293.176 137.778 193.814 137.797C130.479 137.101 46.3452 141.437 9.08319 133.251L6.76434 133.105L6.67487 132.84L6.7088 132.84ZM197.146 140.332C535.394 141.073 874.747 132.728 1211.89 140.362C1257.28 140.367 1377.83 139.766 1375.05 142.233C1067.67 140.076 759.568 137.259 452.24 141.079C303.435 141.941 154.548 142.594 5.63214 142.283C65.9852 137.098 133.742 142.129 197.163 140.332H197.146ZM15.6262 157.793C116.463 157.753 217.255 158.831 317.432 160.741C284.662 174.411 181.937 162.583 117.981 165.198C88.1402 164.983 -6.47369 167.504 15.6151 157.793H15.6262ZM15.6262 168.435C50.7541 169.487 167.7 170.824 74.4608 170.809C54.2245 170.736 33.2425 170.246 15.6262 168.435ZM23.9084 183.218C378.638 182.342 733.7 192.981 1087.79 185.132C1193.89 182.115 1301.24 182.607 1408.29 183.319C1279.96 188.432 1141.07 183.846 1103.86 187.584C819.504 191.395 534.152 188.813 249.435 188.116C174.549 185.554 74.2867 187.029 13.5859 183.536L23.9084 183.218ZM37.7122 186.724C129.971 188.652 221.082 193.621 314.561 190.492C538.655 189.644 762.798 190.501 986.889 190.655C681.107 191.308 374.442 191.295 69.1572 191.772C49.3976 191.847 -21.9533 185.565 37.6901 186.723L37.7122 186.724ZM385.513 190.577C380.498 189.129 379.668 192.099 385.513 190.577V190.577ZM66.6174 198.359C88.4544 200.863 137.061 195.891 84.9394 196.501C272.345 198.398 461.617 201.789 648.052 196.296C811.4 194.838 974.898 197.501 1138.5 196.958C1226.23 198.029 1321.03 195.029 1404.44 199.283C1453.34 210.672 1368.34 221.528 1307.67 215.063C914.84 217.573 521.653 216.812 128.631 216.227C73.0461 218.108 -3.20892 213.06 5.65582 202.685C15.4088 198.696 43.8676 197.085 66.6328 198.359L66.6174 198.359ZM781.047 209.67C957.23 211.064 1133.84 210.096 1309.57 207.637C1241.73 201.784 1160.01 206.505 1086.79 204.331C977.671 204.489 868.789 206.221 760.879 208.908C767.396 209.367 774.027 209.598 781.059 209.67H781.047ZM807.044 207.663C823.283 207.053 801.927 208.731 807.044 207.663V207.663ZM1072.94 215.874C1067.92 214.425 1067.09 217.395 1072.94 215.874V215.874ZM1083.98 215.874C1078.97 214.425 1078.14 217.395 1083.98 215.874V215.874ZM20.233 127.071C36.4719 126.461 15.1163 128.14 20.233 127.071V127.071ZM65.3687 77.2608C95.7122 74.8245 66.2376 79.6596 65.3687 77.2608V77.2608ZM107.94 150.32C100.044 144.217 165.855 152.942 141.792 146.067C413.015 145.022 684.254 142.417 955.581 143.028C1026.36 143.536 1097.84 145.054 1168.04 144.769C1220.58 152.086 1103.7 149.5 1073.82 151.206C1004.08 151.847 935.466 153.741 867.64 156.361C709.929 162.98 1028.38 165.357 1082.2 167.068C1137.05 169.349 1216.35 166.441 1255.7 173.313C1196.08 177.087 1128.33 176.332 1065.69 178.563C855.379 183.092 638.549 184.638 430.36 177.479C509.001 170.793 605.395 170.695 690.874 166.55C635.278 169.466 738.997 161.626 668.928 161.51C557.134 158.882 445.091 156.418 333.22 153.785C258.502 152.134 182.09 151.679 107.704 150.794L107.948 150.321L107.94 150.32ZM346.85 147.94C341.836 146.491 341.006 149.461 346.85 147.94V147.94ZM724.743 154.014C813.187 151.729 902.456 150.378 990.392 147.534C900.443 142.782 803.985 145.408 711.306 145.43C631.377 146.098 550.846 145.605 471.548 147.733C434.742 157.519 701.58 154.298 724.749 154.014L724.743 154.014ZM586.283 177.673C769.823 182.478 957.025 179.535 1138.66 173.863C1061.49 164.388 962.268 169.714 874.964 167.222C776.538 168.096 675.513 170.051 586.299 177.673L586.283 177.673ZM109.996 48.3185C131.152 47.586 101.769 50.009 109.996 48.3185V48.3185ZM148.122 138.569C185.147 139.171 129.161 139.422 148.122 138.569V138.569ZM213.715 180.135C253.393 178.962 265.885 182.154 215.714 181.154C181.034 181.32 156.794 179.342 213.715 180.135ZM168.665 170.554C202.355 168.34 277.842 171.633 198.669 171.119C188.606 171.141 178.32 171.103 168.665 170.554ZM188.681 32.3863C205.467 31.7972 180.794 33.8809 188.681 32.3863V32.3863ZM202.65 107.91C223.822 107.857 191.118 108.568 202.65 107.91V107.91ZM223.356 107.947C245.791 108.301 200.921 108.301 223.356 107.947V107.947ZM227.267 39.9192C243.506 39.309 222.15 40.9876 227.267 39.9192V39.9192ZM245.433 107.928C264.455 108.185 226.41 108.185 245.433 107.928V107.928ZM340.679 -19.965C669.927 -15.5613 623.767 -20.5207 350.977 -19.2044C326.654 -19.3505 291.51 -20.1786 340.679 -19.965ZM318.943 85.6066C371.039 85.6847 505.573 79.9157 509.529 85.8398C447.633 88.3647 385.37 90.5309 318.943 85.6066ZM366.207 -2.45094C433.029 -3.7294 396.139 -0.632389 351.222 -2.08007L366.207 -2.45094ZM432.236 -0.569746C443.583 -3.77053 450.639 0.496748 432.236 -0.569746V-0.569746ZM474.255 43.6291C615.617 39.8826 759.469 39.9925 902.201 39.3782C1052.24 38.9785 1086.69 37.1212 1378.62 43.8675C1343.67 46.7871 1236.66 40.4692 1175.49 41.2042C1025.1 40.0601 874.292 40.5697 723.886 40.9936C649.591 47.5082 520.556 31.6795 474.283 43.6292L474.255 43.6291ZM658.619 -3.69351C221.59 -16.5001 440.107 -10.0971 658.619 -3.69351V-3.69351ZM699.34 65.8333C714.63 62.5153 719.378 67.117 699.34 65.8333V65.8333ZM782.165 109.26C798.404 108.65 777.049 110.328 782.165 109.26V109.26ZM823.577 109.729C839.816 109.118 818.46 110.797 823.577 109.729V109.729ZM837.381 87.7071C853.619 87.0969 832.264 88.7755 837.381 87.7071V87.7071ZM876.418 181.846C886.358 183.631 857.322 181.493 876.418 181.846V181.846ZM965.977 124.038C1108.44 124.518 1251.22 125.537 1392.38 129.003C1315.6 132.795 1239.51 125.722 1161.94 126.4C1082.62 125.521 1002.75 125.891 923.873 124.001C937.9 123.824 951.938 124.054 965.974 124.038L965.977 124.038ZM989.213 216.551C1005.45 215.941 984.097 217.62 989.213 216.551V216.551ZM992.9 190.113C1099.91 189.341 1158.19 185.616 1387.5 186.524C1377.1 192.818 1277.84 187.827 1234.11 189.651C1153.77 190.083 1073.14 191.683 992.889 190.113H992.9ZM1252.35 189.153C1247.33 187.704 1246.5 190.675 1252.35 189.153V189.153ZM1012.89 216.647C1035.32 217.001 990.453 217.001 1012.89 216.647V216.647ZM1038.01 77.5842C1074.11 76.0595 1024.44 79.413 1038.01 77.5842V77.5842ZM1043.01 91.4202C1154.64 88.8854 1266.46 86.5802 1378.33 84.3781C1324.8 89.6922 1251.03 87.0185 1189.69 88.9133C1152.51 88.4309 1109.81 95.1852 1172.86 95.3764C1226.78 96.9378 1337.23 93.6606 1357.09 95.4247C1253.4 96.166 1147.46 97.4644 1045.87 92.9625C1072.72 94.1357 1043.14 92.4093 1043.01 91.4202L1043.01 91.4202ZM1045.1 136.713C1103.68 137.034 1232.09 138.484 1245.58 139.605C1178.48 139.343 1111.62 138.176 1045.1 136.713ZM1060.62 52.1832C1094.63 52.4805 1171.65 56.9084 1092.48 54.6447C1080.88 54.3466 1068.8 53.707 1060.62 52.1832ZM1099.85 216.051C1123.32 216.651 1072.99 216.767 1099.85 216.051V216.051ZM1128.59 91.9529C1141.61 90.5864 1123.29 94.5555 1128.59 91.9529V91.9529ZM1157.82 216.168C1183.65 216.301 1140.94 216.633 1157.82 216.168V216.168ZM1175.63 28.6344C1289.39 25.6498 1470.1 30.2087 1265.48 32.0547C1235.49 31.4315 1202.38 31.2769 1175.63 28.6344ZM1212.27 159.16C1264.27 159.568 1394.79 152.32 1389.06 163.251C1328.78 166.076 1271.47 159.896 1212.27 159.16ZM1212.81 174.854C1229.05 174.244 1207.69 175.922 1212.81 174.854V174.854ZM1226.84 84.2239C1238.87 85.1713 1206.82 84.5939 1226.84 84.2239V84.2239ZM1265.27 31.9535C1281.51 31.3433 1260.15 33.0219 1265.27 31.9535V31.9535ZM1337.05 130.816C1353.28 130.205 1331.93 131.884 1337.05 130.816V130.816Z" fill="#4E350F"/>
</g>
</g>
<defs>
<clipPath id="clip0">
<rect width="1440" height="186" fill="white"/>
</clipPath>
<clipPath id="clip1">
<rect width="1440" height="600" fill="white" transform="translate(1440 393) rotate(-180)"/>
</clipPath>
</defs>
</svg>
